PathFileType	4	(X/Y/Z)	Patient4_TMGait_0pt5_01_left_18.trc.trc
DataRate	CameraRate	NumFrames	NumMarkers	Units	OrigDataRate	OrigDataStartFrame	OrigNumFrames
71.065989847716	71.065989847716	4	33	mm	71.065989847716	106	       141
Frame#	Time	L.ASIS			Sacral			L.Shoulder			Chest			R.Shoulder			Neck			R.ASIS			R.Thigh.Superior			R.Thigh.Lateral			R.Thigh.Inferior			R.Patella			L.Thigh.Superior			L.Thigh.Lateral			L.Thigh.Inferior			L.Patella			L.Shank.Superior			L.Shank.Lateral			L.Shank.Inferior			R.Shank.Superior			R.Shank.Lateral			R.Shank.Inferior			R.Heel			R.Midfoot.Superior			R.Midfoot.Lateral			R.Toe			L.Heel			L.Midfoot.Lateral			L.Midfoot.Superior			L.Toe			L.Elbow			L.Wrist			R.Elbow			R.Wrist			
		X1	Y1	Z1	X2	Y2	Z2	X3	Y3	Z3	X4	Y4	Z4	X5	Y5	Z5	X6	Y6	Z6	X7	Y7	Z7	X8	Y8	Z8	X9	Y9	Z9	X10	Y10	Z10	X11	Y11	Z11	X12	Y12	Z12	X13	Y13	Z13	X14	Y14	Z14	X15	Y15	Z15	X16	Y16	Z16	X17	Y17	Z17	X18	Y18	Z18	X19	Y19	Z19	X20	Y20	Z20	X21	Y21	Z21	X22	Y22	Z22	X23	Y23	Z23	X24	Y24	Z24	X25	Y25	Z25	X26	Y26	Z26	X27	Y27	Z27	X28	Y28	Z28	X29	Y29	Z29	X30	Y30	Z30	X31	Y31	Z31	X32	Y32	Z32	X33	Y33	Z33	

106	25.497500000000	846.839549237251	969.308635075815	365.937344289667	651.914320401458	1011.625744837522	545.699559321134	795.009441255701	1447.143631512072	364.520343325070	921.423205190869	1370.553008920411	504.225792616655	866.733275618580	1435.212758959529	693.076562842165	819.885413577415	1501.657990419069	516.160784006837	888.053077155715	945.629300129129	637.471923723785	903.927760490825	739.559423640776	608.404093137098	812.268579019969	636.930584905127	669.397641286278	879.957618768253	578.754805322721	588.168197478077	870.868236290356	493.838614242620	592.641693934642	931.346556112252	791.038893831862	382.772804873056	883.936770102258	663.041472339313	305.506167305480	992.167276459358	603.893458817667	356.692682729604	1013.988954277970	523.826981180941	346.355480754515	974.154986684690	448.612471974802	342.426240989305	861.872681017613	351.850716265923	300.156673852130	910.626129545126	229.299011306282	352.008111854806	842.084607632818	406.877997731852	595.566026051425	767.059431763083	301.995012920691	649.116207726959	812.283501367489	209.067238460092	584.373961437804	676.380309292969	45.440653621726	540.658794860655	849.313153632076	97.701607189457	582.248225651918	758.634836829038	36.532782517077	616.949034170744	967.133402852426	40.745372941804	610.242716362034	770.636419492550	88.432108580866	398.910806770296	836.644650730885	71.574102257813	314.584917416709	928.111035565860	124.636770169645	329.207172591535	1044.302009561663	58.046827060006	295.896611973260	687.597001220229	1104.846549975400	263.946205504608	693.570401288898	844.650238048441	263.251619775643	967.873402318484	1104.669923407824	803.734649029911	1213.132203708603	1047.759466333987	753.354585746436	
107	25.511571428571	845.203959660427	969.083976598259	365.635240644577	651.048139569967	1011.750230836546	546.193184343628	794.580521883909	1447.635137509470	366.175287172875	921.293542386371	1369.970252369268	504.965857027811	867.615966616239	1434.005432178166	694.252334669082	820.203962897858	1501.354531241160	517.993526188126	887.097819301728	945.257950728903	637.198624831861	901.529372792635	738.977941622612	608.524275242439	808.958053168711	636.849979805275	669.530792426764	876.128228438910	578.185411874981	588.445376661971	866.268017723887	493.404056713227	592.886492069745	928.089152315264	789.899592540867	382.175056204963	879.953210627435	661.801301351599	305.300357182837	987.731086824129	602.564785594527	357.319661234539	1010.684749212623	525.008874504831	347.254689884964	975.526918518351	450.067458214688	342.467665345057	870.804500761041	345.707781363534	299.268480794035	928.662906218244	226.559545700657	350.328214159991	836.963340182762	406.618207052377	595.689957269751	761.369132097614	302.147128458672	649.277344492979	806.070288303364	208.964196600208	584.494002577116	669.403928125901	45.663607142617	540.792373341004	842.367722359559	97.640777446629	582.315966611241	751.631894866849	36.586637630246	616.994730686755	960.129847665999	40.399674734592	610.348642624855	799.641190036992	75.228556270787	396.404344290533	866.832749295055	63.701329572678	311.969880668408	954.240821741451	123.253604416574	326.860929738027	1075.099589890730	65.456798723851	293.281263082199	681.266799449678	1107.681153895205	265.408703913270	683.096178751956	847.339689875970	265.981107354186	975.548408533782	1105.868472410022	802.540369199164	1222.586380969153	1063.569168963833	748.805309038450	
108	25.525642857143	843.652090364337	968.792993851801	365.199119817403	650.206856386356	1011.816223235499	546.516435385417	794.263272447865	1448.035934418888	367.566279452056	921.150136689966	1369.357377590270	505.580234680222	868.279614341331	1432.781807683309	695.234175745554	820.496762162843	1500.997215938892	519.575983607857	886.173619634811	944.832431705005	636.800576927371	899.260854412190	738.343724516656	608.467967990047	805.801260206571	636.715700195463	669.471237399059	872.444823261153	577.577839001817	588.503899048098	861.811044264706	492.904310181418	592.869622621775	924.615194452980	788.341104150995	381.457638756995	875.402943044985	660.212290765023	305.114180627290	982.788124685276	600.767591695286	357.881162597542	1006.771548486037	525.808102197150	348.287302026488	976.175825590381	451.502134693481	342.577816762709	879.363905875109	340.228533738947	298.332419798493	945.831180766968	225.023239803674	348.659568525779	831.976161909280	406.306325014921	595.613455524604	755.830272894741	302.279391107227	649.302102276756	799.919378545712	208.824212356616	584.482392043181	662.427216098803	45.874367865581	540.912581940122	835.395911219233	97.560004589726	582.327912664302	744.622710349238	36.650247950529	617.024397209540	953.117120817484	40.077053803638	610.451895951791	828.052539196579	64.397880149344	393.804851930791	896.202653452992	57.868570167594	309.396785259317	979.319394900668	123.363759574528	324.586682612838	1104.131267413324	74.131286871575	291.051558899280	675.646279697711	1110.323304659893	266.705699552660	673.513225501331	849.890807279885	268.327202278527	982.439582026372	1106.955607166966	800.991178409753	1230.331404561018	1078.965475583570	744.041874410647	
109	25.539714285714	842.188343453044	968.479423434637	364.655206830531	649.391024455109	1011.853847668269	546.680249535273	794.043805208550	1448.354786226244	368.666396208296	920.994318190330	1368.748184227859	506.045198435814	868.740279103429	1431.604086143665	695.997106893137	820.755947502161	1500.617122161586	520.870049295469	885.284109472203	944.364025872349	636.290455807137	897.062093144083	737.665307849726	608.202276525079	802.753714696346	636.550227043643	669.224061918525	868.838988653530	576.947185666349	588.334951721583	857.442040420331	492.358880792391	592.604322939393	921.058029715376	786.535995087498	380.628479757209	870.476235654047	658.417941737972	304.950016881311	977.610023054561	598.710642139046	358.255327204053	1002.521104865492	526.358998906371	349.329104309418	976.252646670721	452.961708599287	342.712980916971	887.420661736463	335.564838931904	297.414049724919	961.833633926497	224.679235839719	347.076343749040	827.069034222819	405.963362445236	595.351488785289	750.393292468187	302.407608783673	649.203546022501	793.804552024959	208.666310683211	584.355447909737	655.444897119459	46.078449477463	541.020724386539	828.402765776681	97.470168873997	582.297745729086	737.605141326013	36.723328518295	617.040305323012	946.093415361370	39.785601617546	610.549744092300	855.191005001179	56.077288896724	391.309234718653	924.097088239438	54.045791682348	307.040273379624	1002.880667820029	124.836148757413	322.488585894703	1130.930988322588	83.674664225385	289.286979555688	670.764150176316	1112.724866749943	267.805570285680	664.867882935403	852.249042290689	270.248184015358	988.516449104049	1107.939947227914	799.124814026806	1236.408189114367	1093.800490151270	739.127997433749	
